<svg version="1.0" xmlns="http://www.w3.org/2000/svg"
 width="600.000000pt" height="600.000000pt" viewBox="0 0 600.000000 600.000000"
 preserveAspectRatio="xMidYMid meet" style="background-color:#FFF;">

<g transform="translate(0.000000,600.000000) scale(0.100000,-0.100000)"
fill="#FF3E00" stroke="none">
<path d="M4425 3269 c-224 -30 -414 -131 -538 -284 -62 -77 -102 -159 -128
-264 -29 -115 -24 -338 11 -446 34 -107 86 -198 158 -276 126 -136 222 -196
553 -345 344 -155 395 -186 444 -276 24 -44 29 -65 30 -124 0 -61 -4 -77 -30
-119 -66 -106 -176 -155 -349 -155 -59 0 -126 6 -160 15 -133 35 -257 126
-351 258 -22 31 -43 57 -46 57 -9 0 -423 -241 -438 -255 -12 -11 -9 -22 19
-67 76 -124 186 -241 299 -317 109 -74 210 -117 366 -157 135 -35 402 -45 544
-20 367 64 605 257 687 556 27 95 26 350 -1 440 -87 297 -274 460 -770 675
-207 89 -321 153 -368 205 -114 126 -83 311 65 384 44 22 65 26 138 26 53 0
105 -6 134 -16 53 -18 150 -102 197 -171 l30 -43 38 22 c103 62 391 254 391
261 0 21 -92 141 -164 213 -115 115 -232 176 -403 209 -97 19 -271 26 -358 14z"/>
<path d="M2698 2228 c-6 -998 -6 -1024 -26 -1076 -44 -115 -108 -160 -240
-169 -152 -11 -252 48 -352 206 -25 39 -50 70 -56 69 -25 -6 -444 -264 -444
-273 0 -20 75 -138 130 -203 107 -127 268 -227 440 -274 75 -20 107 -23 275
-22 221 0 289 14 440 88 197 98 319 267 371 516 17 78 18 168 18 1120 l1 1035
-276 3 -276 2 -5 -1022z"/>
</g>
</svg>
